<svg width="992" height="260" viewBox="0 0 992 260" fill="none" xmlns="http://www.w3.org/2000/svg">
<rect x="33.5132" y="28.5027" width="207.861" height="209.251" rx="13.9037" fill="#52575D"/>
<rect x="0.144531" width="117.487" height="118.182" rx="13.9037" fill="#38A3A5"/>
<rect x="137.096" y="141.818" width="117.487" height="118.182" rx="13.9037" fill="#38A3A5"/>
<rect x="54.3691" y="51.4438" width="162.674" height="162.674" rx="13.9037" fill="white"/>
<path d="M98.9092 166.426C99.312 148.263 113.847 142.545 121.064 141.956C121.064 144.479 123.883 149.575 135.162 149.776C146.441 149.978 150.435 144.647 151.023 141.956C162.855 141.956 171.918 152.804 173.177 166.426C174.184 177.325 163.862 179.545 158.575 179.292H112.504C100.621 179.091 98.4896 170.631 98.9092 166.426Z" fill="#38A3A5"/>
<path d="M135.414 143.722C121.596 143.722 117.636 125.348 117.309 115.233C117.293 114.741 117.787 114.402 118.246 114.582L135.413 121.323C135.737 121.451 136.098 121.452 136.423 121.326L153.799 114.593C154.269 114.411 154.769 114.771 154.731 115.273C153.963 125.397 149.213 143.722 135.414 143.722Z" fill="#38A3A5"/>
<path d="M118.043 103.792V110.96C118.043 111.244 118.215 111.5 118.479 111.606L135.409 118.391C135.574 118.457 135.758 118.458 135.923 118.393L153.1 111.604C153.366 111.5 153.54 111.243 153.54 110.958V103.792C153.54 103.526 153.692 103.284 153.93 103.167L162.021 99.2175C162.551 98.9587 162.538 98.1985 162 97.958L135.95 86.3303C135.769 86.2494 135.562 86.2498 135.381 86.3312L109.575 97.9561C109.038 98.198 109.026 98.9563 109.556 99.2147L117.652 103.167C117.891 103.284 118.043 103.526 118.043 103.792Z" fill="#38A3A5"/>
<path d="M110.49 121.269L111.749 102.601L113.259 121.269L111.749 125.306L110.49 121.269Z" fill="#38A3A5"/>
<ellipse cx="111.497" cy="103.61" rx="1.51053" ry="1.51365" fill="#38A3A5"/>
<path d="M356.92 48.688C361.208 48.688 364.696 49.328 367.384 50.608C370.072 51.824 372.536 53.264 374.776 54.928C375.544 55.568 376.184 55.888 376.696 55.888C377.912 55.888 378.712 53.936 379.096 50.032H381.304C381.176 52.464 381.08 55.44 381.016 58.96C380.952 62.48 380.92 67.12 380.92 72.88H378.712C378.264 69.424 377.624 66.32 376.792 63.568C375.96 60.816 374.456 58.48 372.28 56.56C370.616 54.768 368.504 53.392 365.944 52.432C363.448 51.408 360.92 50.896 358.36 50.896C354.968 50.896 351.992 51.792 349.432 53.584C346.936 55.312 344.824 57.712 343.096 60.784C341.432 63.792 340.184 67.312 339.352 71.344C338.52 75.312 338.104 79.568 338.104 84.112C338.104 95.632 339.768 104.08 343.096 109.456C346.488 114.768 351.448 117.424 357.976 117.424C359.768 117.424 361.304 117.2 362.584 116.752C363.928 116.24 365.016 115.728 365.848 115.216C366.872 114.512 367.544 113.776 367.864 113.008C368.184 112.24 368.344 111.28 368.344 110.128V100.72C368.344 97.904 368.088 95.824 367.576 94.48C367.064 93.072 366.104 92.112 364.696 91.6C363.352 91.088 361.336 90.8 358.648 90.736V88.816C359.928 88.88 361.432 88.944 363.16 89.008C364.952 89.008 366.808 89.04 368.728 89.104C370.712 89.104 372.504 89.104 374.104 89.104C376.6 89.104 378.872 89.072 380.92 89.008C382.968 88.944 384.664 88.88 386.008 88.816V90.736C384.728 90.8 383.736 91.024 383.032 91.408C382.392 91.792 381.976 92.56 381.784 93.712C381.592 94.864 381.496 96.624 381.496 98.992V118H379.576C379.512 116.912 379.256 115.728 378.808 114.448C378.36 113.168 377.688 112.528 376.792 112.528C376.344 112.528 375.832 112.656 375.256 112.912C374.68 113.104 373.688 113.584 372.28 114.352C370.04 115.824 367.64 117.04 365.08 118C362.584 118.896 359.832 119.344 356.824 119.344C349.656 119.344 343.576 118 338.584 115.312C333.656 112.56 329.912 108.624 327.352 103.504C324.792 98.32 323.512 92.144 323.512 84.976C323.512 77.616 324.952 71.216 327.832 65.776C330.712 60.336 334.648 56.144 339.64 53.2C344.696 50.192 350.456 48.688 356.92 48.688ZM422.837 67.024C424.821 67.024 426.453 67.44 427.733 68.272C429.077 69.104 430.069 70.16 430.709 71.44C431.349 72.72 431.669 74.064 431.669 75.472C431.669 77.584 431.029 79.344 429.749 80.752C428.533 82.16 426.901 82.864 424.853 82.864C422.933 82.864 421.365 82.352 420.149 81.328C418.933 80.304 418.325 78.896 418.325 77.104C418.325 75.504 418.709 74.16 419.477 73.072C420.309 71.984 421.237 71.12 422.261 70.48C421.557 70.096 420.757 69.968 419.861 70.096C418.325 70.224 416.917 70.768 415.637 71.728C414.357 72.688 413.269 73.872 412.373 75.28C411.477 76.688 410.773 78.192 410.261 79.792C409.813 81.392 409.589 82.928 409.589 84.4V108.112C409.589 111.248 410.389 113.36 411.989 114.448C413.589 115.472 415.925 115.984 418.997 115.984V118C417.525 117.936 415.381 117.872 412.565 117.808C409.813 117.68 406.933 117.616 403.925 117.616C401.429 117.616 398.933 117.68 396.437 117.808C394.005 117.872 392.181 117.936 390.965 118V115.984C393.333 115.984 394.997 115.504 395.957 114.544C396.981 113.584 397.493 111.76 397.493 109.072V78.832C397.493 75.952 397.013 73.84 396.053 72.496C395.157 71.088 393.461 70.384 390.965 70.384V68.368C393.013 68.56 394.997 68.656 396.917 68.656C399.285 68.656 401.525 68.56 403.637 68.368C405.813 68.112 407.797 67.76 409.589 67.312V77.296C410.357 75.504 411.349 73.84 412.565 72.304C413.845 70.768 415.349 69.52 417.077 68.56C418.869 67.536 420.789 67.024 422.837 67.024ZM448.371 118.672C445.619 118.672 443.283 118.16 441.363 117.136C439.443 116.048 438.003 114.608 437.043 112.816C436.083 110.96 435.603 108.912 435.603 106.672C435.603 103.92 436.243 101.68 437.523 99.952C438.803 98.16 440.435 96.752 442.419 95.728C444.467 94.64 446.611 93.744 448.851 93.04C451.091 92.272 453.203 91.568 455.187 90.928C457.171 90.224 458.803 89.424 460.083 88.528C461.363 87.632 462.003 86.448 462.003 84.976V77.968C462.003 75.92 461.683 74.256 461.043 72.976C460.467 71.632 459.571 70.64 458.355 70C457.203 69.296 455.731 68.944 453.939 68.944C452.595 68.944 451.187 69.136 449.715 69.52C448.243 69.904 447.027 70.64 446.067 71.728C447.731 72.176 449.011 73.008 449.907 74.224C450.867 75.44 451.347 76.912 451.347 78.64C451.347 80.624 450.675 82.192 449.331 83.344C448.051 84.432 446.419 84.976 444.435 84.976C442.323 84.976 440.723 84.304 439.635 82.96C438.547 81.616 438.003 80.048 438.003 78.256C438.003 76.464 438.451 74.992 439.347 73.84C440.243 72.624 441.491 71.536 443.091 70.576C444.691 69.488 446.739 68.624 449.235 67.984C451.731 67.344 454.451 67.024 457.395 67.024C460.211 67.024 462.707 67.344 464.883 67.984C467.059 68.56 468.915 69.616 470.451 71.152C471.987 72.624 472.979 74.448 473.427 76.624C473.875 78.8 474.099 81.456 474.099 84.592V110.896C474.099 112.496 474.291 113.648 474.675 114.352C475.059 114.992 475.667 115.312 476.499 115.312C477.139 115.312 477.747 115.152 478.323 114.832C478.899 114.512 479.539 114.064 480.243 113.488L481.299 115.12C479.891 116.208 478.419 117.072 476.883 117.712C475.347 118.352 473.491 118.672 471.315 118.672C469.075 118.672 467.283 118.352 465.939 117.712C464.659 117.072 463.699 116.144 463.059 114.928C462.483 113.712 462.163 112.272 462.099 110.608C460.563 113.168 458.675 115.152 456.435 116.56C454.195 117.968 451.507 118.672 448.371 118.672ZM454.131 113.296C455.667 113.296 457.075 112.88 458.355 112.048C459.699 111.216 460.915 109.968 462.003 108.304V88.912C461.363 89.872 460.435 90.736 459.219 91.504C458.067 92.272 456.819 93.04 455.475 93.808C454.131 94.576 452.851 95.472 451.635 96.496C450.483 97.456 449.491 98.672 448.659 100.144C447.891 101.552 447.507 103.376 447.507 105.616C447.507 108.112 448.115 110.032 449.331 111.376C450.547 112.656 452.147 113.296 454.131 113.296ZM515.547 67.024C520.539 67.024 524.699 69.136 528.027 73.36C531.419 77.52 533.115 83.856 533.115 92.368C533.115 98.704 532.123 103.888 530.139 107.92C528.155 111.888 525.499 114.8 522.171 116.656C518.843 118.448 515.227 119.344 511.323 119.344C508.571 119.344 505.915 118.768 503.355 117.616C500.859 116.4 498.843 114.512 497.307 111.952H498.939C500.219 113.744 501.755 115.088 503.547 115.984C505.403 116.816 507.259 117.232 509.115 117.232C512.891 117.232 515.707 115.28 517.563 111.376C519.419 107.408 520.347 101.36 520.347 93.232C520.347 87.856 519.963 83.536 519.195 80.272C518.491 76.944 517.435 74.544 516.027 73.072C514.619 71.536 512.859 70.768 510.747 70.768C508.251 70.768 505.947 71.824 503.835 73.936C501.787 76.048 500.603 79.056 500.283 82.96L499.611 80.272C500.635 76.048 502.555 72.784 505.371 70.48C508.251 68.176 511.643 67.024 515.547 67.024ZM500.667 42.832V115.12C499.323 115.184 497.947 115.44 496.539 115.888C495.131 116.272 493.819 116.784 492.603 117.424C491.387 118 490.331 118.704 489.435 119.536L487.898 118.768C488.219 117.872 488.411 116.976 488.475 116.08C488.539 115.184 488.571 114.256 488.571 113.296V54.352C488.571 51.472 488.091 49.36 487.131 48.016C486.235 46.608 484.539 45.904 482.043 45.904V43.888C484.091 44.08 486.075 44.176 487.995 44.176C490.427 44.176 492.699 44.08 494.811 43.888C496.923 43.632 498.875 43.28 500.667 42.832ZM617.784 50.032C617.528 52.976 617.336 55.856 617.208 58.672C617.144 61.424 617.112 63.536 617.112 65.008C617.112 66.48 617.144 67.856 617.208 69.136C617.272 70.416 617.336 71.536 617.4 72.496H615.192C614.296 67.376 613.208 63.376 611.927 60.496C610.648 57.552 608.952 55.44 606.84 54.16C604.792 52.88 602.072 52.24 598.68 52.24H595.608V106.96C595.608 109.584 595.832 111.536 596.28 112.816C596.792 114.096 597.784 114.96 599.256 115.408C600.728 115.792 602.872 116.016 605.688 116.08V118C603.768 117.872 601.272 117.808 598.2 117.808C595.128 117.744 591.992 117.712 588.792 117.712C585.464 117.712 582.328 117.744 579.384 117.808C576.504 117.808 574.168 117.872 572.376 118V116.08C575.128 116.016 577.24 115.792 578.712 115.408C580.184 114.96 581.176 114.096 581.688 112.816C582.2 111.536 582.456 109.584 582.456 106.96V52.24H579.288C575.96 52.24 573.24 52.88 571.128 54.16C569.016 55.44 567.32 57.552 566.04 60.496C564.76 63.376 563.704 67.376 562.872 72.496H560.664C560.792 71.536 560.855 70.416 560.855 69.136C560.92 67.856 560.952 66.48 560.952 65.008C560.952 63.536 560.888 61.424 560.76 58.672C560.696 55.856 560.536 52.976 560.28 50.032C563.096 50.096 566.2 50.16 569.592 50.224C572.984 50.288 576.376 50.32 579.768 50.32C583.16 50.32 586.264 50.32 589.08 50.32C591.832 50.32 594.904 50.32 598.296 50.32C601.688 50.32 605.08 50.288 608.472 50.224C611.864 50.16 614.968 50.096 617.784 50.032ZM640.198 42.832V76.816C641.798 73.232 644.006 70.704 646.822 69.232C649.702 67.76 652.806 67.024 656.134 67.024C658.758 67.024 660.902 67.376 662.566 68.08C664.23 68.784 665.574 69.68 666.598 70.768C667.686 71.984 668.454 73.552 668.902 75.472C669.414 77.392 669.67 79.984 669.67 83.248V109.072C669.67 111.76 670.15 113.584 671.11 114.544C672.134 115.504 673.83 115.984 676.198 115.984V118C675.046 117.936 673.286 117.872 670.918 117.808C668.55 117.68 666.214 117.616 663.91 117.616C661.606 117.616 659.334 117.68 657.094 117.808C654.854 117.872 653.158 117.936 652.006 118V115.984C654.054 115.984 655.494 115.504 656.326 114.544C657.158 113.584 657.574 111.76 657.574 109.072V79.984C657.574 78.256 657.414 76.72 657.094 75.376C656.774 73.968 656.134 72.88 655.174 72.112C654.278 71.28 652.902 70.864 651.046 70.864C648.998 70.864 647.142 71.44 645.478 72.592C643.878 73.68 642.598 75.248 641.638 77.296C640.678 79.28 640.198 81.552 640.198 84.112V109.072C640.198 111.76 640.614 113.584 641.446 114.544C642.342 115.504 643.782 115.984 645.766 115.984V118C644.678 117.936 643.046 117.872 640.87 117.808C638.758 117.68 636.55 117.616 634.246 117.616C631.942 117.616 629.542 117.68 627.046 117.808C624.614 117.872 622.79 117.936 621.574 118V115.984C623.942 115.984 625.606 115.504 626.566 114.544C627.59 113.584 628.102 111.76 628.102 109.072V54.352C628.102 51.472 627.622 49.36 626.662 48.016C625.766 46.608 624.07 45.904 621.574 45.904V43.888C623.622 44.08 625.606 44.176 627.526 44.176C629.958 44.176 632.23 44.08 634.342 43.888C636.454 43.632 638.406 43.28 640.198 42.832ZM704.188 67.024C709.82 67.024 714.236 68.72 717.436 72.112C720.636 75.504 722.236 80.912 722.236 88.336H689.884L689.788 86.512H711.1C711.228 83.376 711.036 80.496 710.524 77.872C710.012 75.184 709.18 73.04 708.028 71.44C706.94 69.84 705.5 69.04 703.708 69.04C701.276 69.04 699.164 70.48 697.372 73.36C695.58 76.176 694.46 80.816 694.012 87.28L694.396 87.856C694.268 88.688 694.172 89.584 694.108 90.544C694.108 91.504 694.108 92.464 694.108 93.424C694.108 97.84 694.748 101.488 696.028 104.368C697.308 107.248 698.972 109.36 701.02 110.704C703.068 112.048 705.18 112.72 707.356 112.72C708.828 112.72 710.332 112.496 711.868 112.048C713.404 111.6 714.908 110.768 716.38 109.552C717.852 108.336 719.196 106.608 720.412 104.368L722.236 105.136C721.532 107.376 720.348 109.616 718.684 111.856C717.084 114.032 715.004 115.824 712.444 117.232C709.884 118.64 706.876 119.344 703.42 119.344C699.068 119.344 695.228 118.384 691.9 116.464C688.572 114.544 685.98 111.696 684.124 107.92C682.268 104.08 681.34 99.408 681.34 93.904C681.34 88.08 682.3 83.184 684.22 79.216C686.204 75.248 688.924 72.24 692.38 70.192C695.836 68.08 699.772 67.024 704.188 67.024ZM802.602 50.032C802.346 52.784 802.154 55.44 802.026 58C801.962 60.56 801.93 62.512 801.93 63.856C801.93 65.328 801.962 66.704 802.026 67.984C802.09 69.264 802.154 70.384 802.218 71.344H800.01C799.306 66.544 798.346 62.768 797.13 60.016C795.914 57.2 794.282 55.216 792.234 54.064C790.186 52.848 787.466 52.24 784.074 52.24H779.946C778.026 52.24 776.554 52.4 775.53 52.72C774.506 53.04 773.802 53.712 773.418 54.736C773.098 55.76 772.938 57.328 772.938 59.44V107.44C772.938 109.872 773.194 111.696 773.706 112.912C774.218 114.128 775.21 114.928 776.682 115.312C778.154 115.696 780.266 115.92 783.018 115.984V118C781.162 117.872 778.762 117.808 775.818 117.808C772.874 117.744 769.834 117.712 766.698 117.712C764.01 117.712 761.418 117.744 758.922 117.808C756.426 117.808 754.25 117.872 752.394 118V116.08C754.506 115.952 756.074 115.696 757.098 115.312C758.186 114.928 758.89 114.16 759.21 113.008C759.594 111.856 759.786 110.128 759.786 107.824V60.208C759.786 57.84 759.594 56.112 759.21 55.024C758.89 53.872 758.186 53.104 757.098 52.72C756.074 52.272 754.506 52.016 752.394 51.952V50.032C754.954 50.096 757.642 50.16 760.458 50.224C763.338 50.224 766.154 50.256 768.906 50.32C771.722 50.32 774.314 50.32 776.682 50.32C779.114 50.32 781.066 50.32 782.538 50.32C785.482 50.32 788.81 50.32 792.522 50.32C796.298 50.256 799.658 50.16 802.602 50.032ZM788.106 83.44C788.106 83.44 788.106 83.76 788.106 84.4C788.106 85.04 788.106 85.36 788.106 85.36H770.058C770.058 85.36 770.058 85.04 770.058 84.4C770.058 83.76 770.058 83.44 770.058 83.44H788.106ZM790.314 70.768C790.058 74.416 789.93 77.2 789.93 79.12C789.994 81.04 790.026 82.8 790.026 84.4C790.026 86 790.058 87.76 790.122 89.68C790.186 91.6 790.346 94.384 790.602 98.032H788.394C788.138 95.856 787.658 93.808 786.954 91.888C786.25 89.904 785.162 88.336 783.69 87.184C782.282 85.968 780.234 85.36 777.546 85.36V83.44C779.53 83.44 781.162 83.024 782.442 82.192C783.722 81.36 784.714 80.304 785.418 79.024C786.186 77.68 786.762 76.304 787.146 74.896C787.594 73.424 787.914 72.048 788.106 70.768H790.314ZM808.55 50.032C810.15 50.096 812.198 50.16 814.694 50.224C817.19 50.288 819.686 50.32 822.182 50.32C825.318 50.32 828.294 50.288 831.11 50.224C833.926 50.16 835.91 50.128 837.062 50.128C842.822 50.128 847.558 50.832 851.27 52.24C855.046 53.584 857.862 55.504 859.718 58C861.574 60.496 862.502 63.44 862.502 66.832C862.502 68.944 862.086 71.12 861.254 73.36C860.422 75.536 858.982 77.552 856.934 79.408C854.886 81.264 852.07 82.8 848.486 84.016C844.966 85.168 840.454 85.744 834.95 85.744H825.734V83.824H833.99C838.022 83.824 841.094 83.12 843.206 81.712C845.382 80.24 846.822 78.32 847.526 75.952C848.294 73.52 848.678 70.832 848.678 67.888C848.678 62.832 847.686 58.928 845.702 56.176C843.718 53.36 840.294 51.952 835.43 51.952C832.806 51.952 831.078 52.496 830.246 53.584C829.478 54.672 829.094 56.88 829.094 60.208V107.824C829.094 110.128 829.286 111.856 829.67 113.008C830.054 114.16 830.758 114.928 831.782 115.312C832.87 115.696 834.438 115.952 836.486 116.08V118C834.886 117.872 832.838 117.808 830.342 117.808C827.846 117.744 825.318 117.712 822.758 117.712C819.878 117.712 817.19 117.744 814.694 117.808C812.198 117.808 810.15 117.872 808.55 118V116.08C810.662 115.952 812.23 115.696 813.254 115.312C814.342 114.928 815.046 114.16 815.366 113.008C815.75 111.856 815.942 110.128 815.942 107.824V60.208C815.942 57.84 815.75 56.112 815.366 55.024C815.046 53.872 814.342 53.104 813.254 52.72C812.23 52.272 810.662 52.016 808.55 51.952V50.032ZM825.734 84.112C828.742 84.24 831.238 84.4 833.222 84.592C835.27 84.72 836.998 84.848 838.406 84.976C839.878 85.104 841.19 85.264 842.342 85.456C847.654 85.968 851.558 87.216 854.054 89.2C856.614 91.12 858.31 94.064 859.142 98.032L861.35 107.92C861.926 110.544 862.534 112.432 863.174 113.584C863.878 114.672 864.87 115.184 866.15 115.12C867.046 115.12 867.814 114.896 868.454 114.448C869.094 113.936 869.734 113.264 870.374 112.432L871.718 113.584C870.118 115.568 868.422 117.04 866.63 118C864.838 118.896 862.566 119.344 859.814 119.344C856.742 119.344 854.15 118.64 852.038 117.232C849.926 115.76 848.486 113.008 847.718 108.976L845.894 99.376C845.382 96.688 844.774 94.32 844.07 92.272C843.43 90.224 842.534 88.624 841.382 87.472C840.23 86.32 838.534 85.744 836.294 85.744H825.926L825.734 84.112ZM907.311 48.688C911.535 48.688 914.991 49.328 917.679 50.608C920.431 51.824 922.863 53.264 924.975 54.928C926.255 55.888 927.215 56.016 927.855 55.312C928.559 54.544 929.039 52.784 929.295 50.032H931.503C931.375 52.464 931.279 55.44 931.215 58.96C931.151 62.48 931.119 67.12 931.119 72.88H928.911C928.527 70 928.111 67.6 927.663 65.68C927.215 63.696 926.575 62 925.743 60.592C924.975 59.184 923.887 57.84 922.479 56.56C920.751 54.64 918.671 53.232 916.239 52.336C913.871 51.376 911.375 50.896 908.751 50.896C905.423 50.896 902.511 51.792 900.015 53.584C897.583 55.312 895.535 57.712 893.871 60.784C892.271 63.792 891.055 67.312 890.223 71.344C889.455 75.376 889.071 79.664 889.071 84.208C889.071 88.88 889.487 93.232 890.319 97.264C891.215 101.232 892.495 104.72 894.159 107.728C895.887 110.672 897.999 112.976 900.495 114.64C903.055 116.304 905.999 117.136 909.327 117.136C911.695 117.136 914.127 116.688 916.623 115.792C919.119 114.896 921.167 113.52 922.767 111.664C924.879 109.744 926.319 107.472 927.087 104.848C927.855 102.16 928.463 98.608 928.911 94.192H931.119C931.119 100.208 931.151 105.072 931.215 108.784C931.279 112.432 931.375 115.504 931.503 118H929.295C929.039 115.248 928.591 113.52 927.951 112.816C927.375 112.112 926.383 112.208 924.975 113.104C922.607 114.768 920.079 116.24 917.391 117.52C914.767 118.736 911.375 119.344 907.215 119.344C900.687 119.344 894.959 117.968 890.031 115.216C885.103 112.464 881.263 108.496 878.511 103.312C875.823 98.128 874.479 91.888 874.479 84.592C874.479 77.424 875.887 71.152 878.703 65.776C881.519 60.4 885.391 56.208 890.319 53.2C895.247 50.192 900.911 48.688 907.311 48.688ZM963.585 48.88C967.169 48.88 969.921 49.264 971.841 50.032C973.761 50.8 975.425 51.632 976.833 52.528C977.601 52.976 978.209 53.328 978.657 53.584C979.169 53.776 979.649 53.872 980.097 53.872C980.737 53.872 981.185 53.52 981.441 52.816C981.761 52.112 982.017 51.056 982.209 49.648H984.417C984.353 50.864 984.257 52.272 984.129 53.872C984.065 55.472 984.001 57.616 983.937 60.304C983.937 62.928 983.937 66.416 983.937 70.768H981.729C981.537 67.504 980.801 64.368 979.521 61.36C978.305 58.352 976.545 55.888 974.241 53.968C972.001 51.984 969.121 50.992 965.601 50.992C962.465 50.992 959.841 51.92 957.729 53.776C955.681 55.632 954.657 58.128 954.657 61.264C954.657 63.952 955.329 66.224 956.673 68.08C958.017 69.872 959.905 71.632 962.337 73.36C964.833 75.024 967.777 76.944 971.169 79.12C974.305 81.168 977.121 83.216 979.617 85.264C982.113 87.248 984.065 89.456 985.473 91.888C986.945 94.32 987.681 97.296 987.681 100.816C987.681 104.976 986.657 108.432 984.609 111.184C982.561 113.936 979.809 115.984 976.353 117.328C972.897 118.672 969.121 119.344 965.025 119.344C961.249 119.344 958.241 118.96 956.001 118.192C953.825 117.424 951.937 116.624 950.337 115.792C948.929 114.896 947.841 114.448 947.073 114.448C946.433 114.448 945.953 114.8 945.633 115.504C945.377 116.208 945.153 117.264 944.961 118.672H942.753C942.881 117.2 942.945 115.472 942.945 113.488C943.009 111.504 943.041 108.944 943.041 105.808C943.105 102.608 943.137 98.576 943.137 93.712H945.345C945.601 97.808 946.305 101.648 947.457 105.232C948.673 108.752 950.497 111.6 952.929 113.776C955.425 115.952 958.721 117.04 962.817 117.04C965.057 117.04 967.073 116.656 968.865 115.888C970.721 115.056 972.193 113.808 973.281 112.144C974.369 110.416 974.913 108.24 974.913 105.616C974.913 102.992 974.305 100.688 973.089 98.704C971.873 96.72 970.177 94.864 968.001 93.136C965.825 91.408 963.265 89.648 960.321 87.856C957.313 85.936 954.497 83.984 951.873 82C949.249 80.016 947.137 77.776 945.537 75.28C944.001 72.72 943.233 69.648 943.233 66.064C943.233 62.096 944.193 58.864 946.113 56.368C948.033 53.808 950.529 51.92 953.601 50.704C956.737 49.488 960.065 48.88 963.585 48.88Z" fill="#232323"/>
<path d="M413.288 199.488C414.888 199.488 416.104 199.68 416.936 200.064C417.768 200.416 418.504 200.816 419.144 201.264C419.528 201.488 419.832 201.664 420.056 201.792C420.312 201.888 420.552 201.936 420.776 201.936C421.096 201.936 421.32 201.76 421.448 201.408C421.608 201.056 421.736 200.528 421.832 199.824H422.936C422.904 200.368 422.856 201.024 422.792 201.792C422.76 202.528 422.728 203.52 422.696 204.768C422.696 205.984 422.696 207.6 422.696 209.616H421.592C421.496 208.08 421.16 206.608 420.584 205.2C420.008 203.792 419.16 202.64 418.04 201.744C416.952 200.848 415.512 200.4 413.72 200.4C412.024 200.4 410.616 200.912 409.496 201.936C408.408 202.96 407.864 204.304 407.864 205.968C407.864 207.408 408.232 208.624 408.968 209.616C409.704 210.576 410.68 211.456 411.896 212.256C413.144 213.024 414.488 213.856 415.928 214.752C417.592 215.776 419.064 216.8 420.344 217.824C421.656 218.816 422.68 219.92 423.416 221.136C424.184 222.352 424.568 223.824 424.568 225.552C424.568 227.6 424.104 229.296 423.176 230.64C422.248 231.984 421.016 232.992 419.48 233.664C417.944 234.336 416.248 234.672 414.392 234.672C412.696 234.672 411.352 234.48 410.36 234.096C409.368 233.712 408.52 233.312 407.816 232.896C407.112 232.448 406.568 232.224 406.184 232.224C405.864 232.224 405.624 232.4 405.464 232.752C405.336 233.104 405.224 233.632 405.128 234.336H404.024C404.088 233.664 404.12 232.88 404.12 231.984C404.152 231.056 404.168 229.856 404.168 228.384C404.2 226.912 404.216 225.056 404.216 222.816H405.32C405.448 224.736 405.8 226.528 406.376 228.192C406.984 229.856 407.896 231.2 409.112 232.224C410.36 233.216 412.008 233.712 414.056 233.712C415.112 233.712 416.104 233.504 417.032 233.088C417.992 232.64 418.776 231.952 419.384 231.024C419.992 230.064 420.296 228.832 420.296 227.328C420.296 226.016 419.976 224.88 419.336 223.92C418.728 222.928 417.864 222.016 416.744 221.184C415.624 220.32 414.312 219.44 412.808 218.544C411.304 217.616 409.896 216.672 408.584 215.712C407.272 214.752 406.216 213.648 405.416 212.4C404.648 211.12 404.264 209.584 404.264 207.792C404.264 205.904 404.68 204.352 405.512 203.136C406.376 201.888 407.496 200.976 408.872 200.4C410.248 199.792 411.72 199.488 413.288 199.488ZM436.186 197.28C437.018 197.28 437.738 197.584 438.346 198.192C438.954 198.8 439.258 199.52 439.258 200.352C439.258 201.184 438.954 201.904 438.346 202.512C437.738 203.12 437.018 203.424 436.186 203.424C435.354 203.424 434.634 203.12 434.026 202.512C433.418 201.904 433.114 201.184 433.114 200.352C433.114 199.52 433.418 198.8 434.026 198.192C434.634 197.584 435.354 197.28 436.186 197.28ZM438.682 208.752V229.536C438.682 230.88 438.954 231.792 439.498 232.272C440.074 232.752 441.018 232.992 442.33 232.992V234C441.786 233.968 440.954 233.936 439.834 233.904C438.746 233.84 437.642 233.808 436.522 233.808C435.434 233.808 434.33 233.84 433.21 233.904C432.09 233.936 431.258 233.968 430.714 234V232.992C432.026 232.992 432.954 232.752 433.498 232.272C434.074 231.792 434.362 230.88 434.362 229.536V214.512C434.362 213.072 434.106 212.016 433.594 211.344C433.082 210.64 432.122 210.288 430.714 210.288V209.28C431.738 209.376 432.73 209.424 433.69 209.424C434.618 209.424 435.498 209.376 436.33 209.28C437.194 209.152 437.978 208.976 438.682 208.752ZM463.304 208.608C464.52 208.608 465.528 208.768 466.328 209.088C467.16 209.408 467.848 209.856 468.392 210.432C469 211.072 469.432 211.872 469.688 212.832C469.944 213.792 470.072 215.088 470.072 216.72V229.536C470.072 230.88 470.344 231.792 470.888 232.272C471.464 232.752 472.408 232.992 473.72 232.992V234C473.176 233.968 472.344 233.936 471.224 233.904C470.104 233.84 469.016 233.808 467.96 233.808C466.904 233.808 465.864 233.84 464.84 233.904C463.848 233.936 463.096 233.968 462.584 234V232.992C463.736 232.992 464.552 232.752 465.032 232.272C465.512 231.792 465.752 230.88 465.752 229.536V215.664C465.752 214.672 465.672 213.76 465.512 212.928C465.352 212.096 464.984 211.424 464.408 210.912C463.864 210.4 463.016 210.144 461.864 210.144C460.52 210.144 459.336 210.528 458.312 211.296C457.32 212.064 456.536 213.12 455.96 214.464C455.416 215.776 455.144 217.248 455.144 218.88V229.536C455.144 230.88 455.384 231.792 455.864 232.272C456.344 232.752 457.16 232.992 458.312 232.992V234C457.8 233.968 457.032 233.936 456.008 233.904C455.016 233.84 453.992 233.808 452.936 233.808C451.88 233.808 450.792 233.84 449.672 233.904C448.552 233.936 447.72 233.968 447.176 234V232.992C448.488 232.992 449.416 232.752 449.96 232.272C450.536 231.792 450.824 230.88 450.824 229.536V214.512C450.824 213.072 450.568 212.016 450.056 211.344C449.544 210.64 448.584 210.288 447.176 210.288V209.28C448.2 209.376 449.192 209.424 450.152 209.424C451.08 209.424 451.96 209.376 452.792 209.28C453.656 209.152 454.44 208.976 455.144 208.752V214.416C455.976 212.24 457.128 210.736 458.6 209.904C460.104 209.04 461.672 208.608 463.304 208.608ZM486.58 243.024C484.884 243.024 483.284 242.848 481.78 242.496C480.276 242.144 479.06 241.584 478.132 240.816C477.236 240.08 476.788 239.136 476.788 237.984C476.788 236.864 477.236 235.904 478.132 235.104C479.028 234.304 480.244 233.696 481.78 233.28L482.068 234.048C481.364 234.272 480.804 234.72 480.388 235.392C479.972 236.064 479.764 236.816 479.764 237.648C479.764 239.12 480.436 240.24 481.78 241.008C483.156 241.808 484.932 242.208 487.108 242.208C488.548 242.208 489.956 242.016 491.332 241.632C492.708 241.28 493.844 240.672 494.74 239.808C495.636 238.944 496.084 237.808 496.084 236.4C496.084 235.344 495.7 234.48 494.932 233.808C494.196 233.104 492.724 232.752 490.516 232.752H486.964C485.94 232.752 484.948 232.672 483.988 232.512C483.028 232.352 482.244 232.016 481.636 231.504C481.028 230.992 480.724 230.208 480.724 229.152C480.724 228.064 481.172 227.024 482.068 226.032C482.964 225.008 484.612 223.968 487.012 222.912L487.588 223.344C486.5 223.92 485.556 224.512 484.756 225.12C483.956 225.696 483.556 226.384 483.556 227.184C483.556 228.208 484.324 228.72 485.86 228.72H491.86C493.204 228.72 494.436 228.912 495.556 229.296C496.708 229.68 497.636 230.288 498.34 231.12C499.044 231.952 499.396 233.04 499.396 234.384C499.396 235.888 498.916 237.296 497.956 238.608C496.996 239.92 495.556 240.976 493.636 241.776C491.748 242.608 489.396 243.024 486.58 243.024ZM486.82 223.776C485.252 223.776 483.828 223.52 482.548 223.008C481.268 222.464 480.26 221.632 479.524 220.512C478.788 219.392 478.42 217.952 478.42 216.192C478.42 214.432 478.788 212.992 479.524 211.872C480.26 210.752 481.268 209.936 482.548 209.424C483.828 208.88 485.252 208.608 486.82 208.608C488.42 208.608 489.844 208.88 491.092 209.424C492.372 209.936 493.38 210.752 494.116 211.872C494.852 212.992 495.22 214.432 495.22 216.192C495.22 217.952 494.852 219.392 494.116 220.512C493.38 221.632 492.372 222.464 491.092 223.008C489.844 223.52 488.42 223.776 486.82 223.776ZM486.82 222.912C488.036 222.912 488.98 222.432 489.652 221.472C490.356 220.512 490.708 218.752 490.708 216.192C490.708 213.632 490.356 211.872 489.652 210.912C488.98 209.952 488.036 209.472 486.82 209.472C485.636 209.472 484.692 209.952 483.988 210.912C483.284 211.872 482.932 213.632 482.932 216.192C482.932 218.752 483.284 220.512 483.988 221.472C484.692 222.432 485.636 222.912 486.82 222.912ZM493.732 212.592L492.868 212.256C493.316 211.168 494.084 210.208 495.172 209.376C496.26 208.544 497.396 208.128 498.58 208.128C499.412 208.128 500.084 208.368 500.596 208.848C501.108 209.296 501.364 209.984 501.364 210.912C501.364 211.904 501.092 212.608 500.548 213.024C500.036 213.408 499.508 213.6 498.964 213.6C498.484 213.6 498.036 213.44 497.62 213.12C497.204 212.768 496.964 212.224 496.9 211.488C496.836 210.752 497.06 209.808 497.572 208.656L498.196 208.8C496.852 209.312 495.892 209.856 495.316 210.432C494.74 210.976 494.212 211.696 493.732 212.592ZM513.14 196.368V229.536C513.14 230.88 513.412 231.792 513.956 232.272C514.532 232.752 515.476 232.992 516.788 232.992V234C516.244 233.968 515.412 233.936 514.292 233.904C513.204 233.84 512.1 233.808 510.98 233.808C509.892 233.808 508.788 233.84 507.668 233.904C506.548 233.936 505.716 233.968 505.172 234V232.992C506.484 232.992 507.412 232.752 507.956 232.272C508.532 231.792 508.82 230.88 508.82 229.536V202.128C508.82 200.688 508.564 199.632 508.052 198.96C507.54 198.256 506.58 197.904 505.172 197.904V196.896C506.196 196.992 507.188 197.04 508.148 197.04C509.076 197.04 509.956 196.992 510.788 196.896C511.652 196.768 512.436 196.592 513.14 196.368ZM532.837 208.608C535.653 208.608 537.845 209.472 539.413 211.2C541.013 212.896 541.813 215.552 541.813 219.168H524.869L524.821 218.256H537.205C537.269 216.688 537.141 215.248 536.821 213.936C536.501 212.592 535.989 211.52 535.285 210.72C534.613 209.92 533.733 209.52 532.645 209.52C531.173 209.52 529.861 210.256 528.709 211.728C527.589 213.2 526.917 215.536 526.693 218.736L526.837 218.928C526.773 219.408 526.725 219.936 526.693 220.512C526.661 221.088 526.645 221.664 526.645 222.24C526.645 224.416 526.997 226.288 527.701 227.856C528.405 229.424 529.317 230.624 530.437 231.456C531.589 232.256 532.773 232.656 533.989 232.656C534.949 232.656 535.861 232.512 536.725 232.224C537.589 231.904 538.389 231.392 539.125 230.688C539.861 229.984 540.501 229.04 541.045 227.856L542.005 228.24C541.653 229.296 541.077 230.32 540.277 231.312C539.477 232.304 538.469 233.12 537.253 233.76C536.037 234.368 534.629 234.672 533.029 234.672C530.725 234.672 528.741 234.144 527.077 233.088C525.445 232.032 524.181 230.576 523.285 228.72C522.421 226.832 521.989 224.672 521.989 222.24C521.989 219.424 522.437 217.008 523.333 214.992C524.229 212.944 525.493 211.376 527.125 210.288C528.757 209.168 530.661 208.608 532.837 208.608ZM562.832 200.016C563.504 200.048 564.384 200.08 565.472 200.112C566.56 200.144 567.632 200.16 568.688 200.16C570.192 200.16 571.632 200.144 573.008 200.112C574.384 200.08 575.36 200.064 575.936 200.064C579.296 200.064 581.824 200.768 583.52 202.176C585.216 203.584 586.064 205.392 586.064 207.6C586.064 208.72 585.824 209.824 585.344 210.912C584.896 211.968 584.128 212.944 583.04 213.84C581.984 214.704 580.56 215.408 578.768 215.952V216.048C581.296 216.368 583.264 216.976 584.672 217.872C586.112 218.736 587.12 219.76 587.696 220.944C588.272 222.128 588.56 223.376 588.56 224.688C588.56 226.512 588.096 228.128 587.168 229.536C586.272 230.912 584.96 232 583.232 232.8C581.504 233.6 579.44 234 577.04 234C576.336 234 575.28 233.984 573.872 233.952C572.464 233.888 570.768 233.856 568.784 233.856C567.664 233.856 566.56 233.872 565.472 233.904C564.384 233.904 563.504 233.936 562.832 234V233.04C563.92 232.976 564.736 232.848 565.28 232.656C565.856 232.464 566.24 232.08 566.432 231.504C566.624 230.928 566.72 230.064 566.72 228.912V205.104C566.72 203.92 566.624 203.056 566.432 202.512C566.24 201.936 565.856 201.552 565.28 201.36C564.736 201.136 563.92 201.008 562.832 200.976V200.016ZM574.736 200.976C573.264 200.976 572.304 201.248 571.856 201.792C571.408 202.336 571.184 203.44 571.184 205.104V228.912C571.184 230.032 571.28 230.88 571.472 231.456C571.664 232.032 572.016 232.416 572.528 232.608C573.04 232.8 573.792 232.896 574.784 232.896C577.92 232.896 580.192 232.176 581.6 230.736C583.04 229.264 583.76 227.184 583.76 224.496C583.76 222.032 583.088 220.128 581.744 218.784C580.432 217.44 578.256 216.768 575.216 216.768H570.272C570.272 216.768 570.272 216.64 570.272 216.384C570.272 216.096 570.272 215.952 570.272 215.952H574.4C576.288 215.952 577.744 215.6 578.768 214.896C579.792 214.16 580.496 213.2 580.88 212.016C581.264 210.8 581.456 209.504 581.456 208.128C581.456 205.76 580.928 203.984 579.872 202.8C578.848 201.584 577.136 200.976 574.736 200.976ZM606.178 208.608C608.994 208.608 611.186 209.472 612.754 211.2C614.354 212.896 615.154 215.552 615.154 219.168H598.21L598.162 218.256H610.546C610.61 216.688 610.482 215.248 610.162 213.936C609.842 212.592 609.33 211.52 608.626 210.72C607.954 209.92 607.074 209.52 605.986 209.52C604.514 209.52 603.202 210.256 602.05 211.728C600.93 213.2 600.258 215.536 600.034 218.736L600.178 218.928C600.114 219.408 600.066 219.936 600.034 220.512C600.002 221.088 599.986 221.664 599.986 222.24C599.986 224.416 600.338 226.288 601.042 227.856C601.746 229.424 602.658 230.624 603.778 231.456C604.93 232.256 606.114 232.656 607.33 232.656C608.29 232.656 609.202 232.512 610.066 232.224C610.93 231.904 611.73 231.392 612.466 230.688C613.202 229.984 613.842 229.04 614.386 227.856L615.346 228.24C614.994 229.296 614.418 230.32 613.618 231.312C612.818 232.304 611.81 233.12 610.594 233.76C609.378 234.368 607.97 234.672 606.37 234.672C604.066 234.672 602.082 234.144 600.418 233.088C598.786 232.032 597.522 230.576 596.626 228.72C595.762 226.832 595.33 224.672 595.33 222.24C595.33 219.424 595.778 217.008 596.674 214.992C597.57 212.944 598.834 211.376 600.466 210.288C602.098 209.168 604.002 208.608 606.178 208.608ZM629.787 208.608C631.067 208.608 632.155 208.816 633.051 209.232C633.947 209.648 634.603 210.032 635.019 210.384C636.075 211.248 636.715 210.672 636.939 208.656H638.043C637.979 209.552 637.931 210.624 637.899 211.872C637.867 213.088 637.851 214.736 637.851 216.816H636.747C636.555 215.632 636.219 214.48 635.739 213.36C635.291 212.24 634.619 211.328 633.723 210.624C632.827 209.888 631.659 209.52 630.219 209.52C629.099 209.52 628.155 209.84 627.387 210.48C626.651 211.088 626.283 212 626.283 213.216C626.283 214.176 626.571 215.008 627.147 215.712C627.723 216.384 628.475 217.024 629.403 217.632C630.331 218.208 631.339 218.848 632.427 219.552C633.643 220.32 634.747 221.104 635.739 221.904C636.731 222.704 637.515 223.584 638.091 224.544C638.699 225.504 639.003 226.64 639.003 227.952C639.003 229.424 638.619 230.656 637.851 231.648C637.083 232.64 636.075 233.392 634.827 233.904C633.611 234.416 632.267 234.672 630.795 234.672C630.091 234.672 629.419 234.608 628.779 234.48C628.171 234.384 627.579 234.224 627.003 234C626.683 233.84 626.347 233.648 625.995 233.424C625.675 233.2 625.355 232.96 625.035 232.704C624.715 232.448 624.427 232.464 624.171 232.752C623.915 233.008 623.723 233.536 623.595 234.336H622.491C622.555 233.312 622.603 232.064 622.635 230.592C622.667 229.12 622.683 227.168 622.683 224.736H623.787C624.011 226.528 624.331 228.096 624.747 229.44C625.163 230.784 625.819 231.84 626.715 232.608C627.611 233.344 628.859 233.712 630.459 233.712C631.099 233.712 631.739 233.568 632.379 233.28C633.051 232.992 633.611 232.512 634.059 231.84C634.507 231.168 634.731 230.272 634.731 229.152C634.731 227.744 634.219 226.592 633.195 225.696C632.171 224.8 630.875 223.856 629.307 222.864C628.155 222.128 627.067 221.392 626.043 220.656C625.051 219.92 624.235 219.088 623.595 218.16C622.987 217.232 622.683 216.112 622.683 214.8C622.683 213.36 623.003 212.192 623.643 211.296C624.315 210.368 625.195 209.696 626.283 209.28C627.371 208.832 628.539 208.608 629.787 208.608ZM652.792 201.312V209.328H659.896V210.288H652.792V228.864C652.792 230.368 653.064 231.424 653.608 232.032C654.152 232.64 654.904 232.944 655.864 232.944C656.824 232.944 657.656 232.56 658.36 231.792C659.064 230.992 659.672 229.664 660.184 227.808L661.144 228.048C660.824 229.904 660.184 231.472 659.224 232.752C658.296 234.032 656.856 234.672 654.904 234.672C653.816 234.672 652.92 234.528 652.216 234.24C651.512 233.984 650.888 233.6 650.344 233.088C649.64 232.352 649.144 231.472 648.856 230.448C648.6 229.424 648.472 228.064 648.472 226.368V210.288H643.864V209.328H648.472V201.984C649.272 201.952 650.04 201.888 650.776 201.792C651.512 201.696 652.184 201.536 652.792 201.312ZM678.613 200.016C679.285 200.048 680.165 200.08 681.253 200.112C682.341 200.144 683.413 200.16 684.469 200.16C685.973 200.16 687.413 200.144 688.789 200.112C690.165 200.08 691.141 200.064 691.717 200.064C694.309 200.064 696.453 200.432 698.149 201.168C699.877 201.904 701.157 202.912 701.989 204.192C702.853 205.44 703.285 206.848 703.285 208.416C703.285 209.376 703.093 210.4 702.709 211.488C702.325 212.576 701.653 213.6 700.693 214.56C699.765 215.52 698.485 216.32 696.853 216.96C695.221 217.568 693.157 217.872 690.661 217.872H686.053V216.912H690.181C692.453 216.912 694.181 216.56 695.365 215.856C696.581 215.12 697.397 214.16 697.813 212.976C698.261 211.76 698.485 210.416 698.485 208.944C698.485 206.416 697.877 204.464 696.661 203.088C695.477 201.68 693.429 200.976 690.517 200.976C689.045 200.976 688.085 201.248 687.637 201.792C687.189 202.336 686.965 203.44 686.965 205.104V228.912C686.965 230.064 687.061 230.928 687.253 231.504C687.445 232.08 687.813 232.464 688.357 232.656C688.933 232.848 689.765 232.976 690.853 233.04V234C690.117 233.936 689.189 233.904 688.069 233.904C686.981 233.872 685.877 233.856 684.757 233.856C683.509 233.856 682.341 233.872 681.253 233.904C680.165 233.904 679.285 233.936 678.613 234V233.04C679.701 232.976 680.517 232.848 681.061 232.656C681.637 232.464 682.021 232.08 682.213 231.504C682.405 230.928 682.501 230.064 682.501 228.912V205.104C682.501 203.92 682.405 203.056 682.213 202.512C682.021 201.936 681.637 201.552 681.061 201.36C680.517 201.136 679.701 201.008 678.613 200.976V200.016ZM686.245 217.056C687.973 217.12 689.333 217.2 690.325 217.296C691.317 217.36 692.117 217.424 692.725 217.488C693.365 217.552 693.973 217.632 694.549 217.728C696.693 218.08 698.229 218.736 699.157 219.696C700.117 220.624 700.821 222.08 701.269 224.064L702.469 228.96C702.789 230.368 703.109 231.392 703.429 232.032C703.781 232.64 704.309 232.928 705.013 232.896C705.557 232.864 706.005 232.688 706.357 232.368C706.741 232.048 707.141 231.616 707.557 231.072L708.277 231.6C707.605 232.592 706.901 233.36 706.165 233.904C705.461 234.416 704.453 234.672 703.141 234.672C701.957 234.672 700.917 234.32 700.021 233.616C699.125 232.912 698.453 231.536 698.005 229.488L696.949 224.688C696.661 223.312 696.325 222.128 695.941 221.136C695.589 220.112 695.077 219.312 694.405 218.736C693.765 218.16 692.805 217.872 691.525 217.872H686.341L686.245 217.056ZM723.178 208.608C725.994 208.608 728.186 209.472 729.754 211.2C731.354 212.896 732.154 215.552 732.154 219.168H715.21L715.162 218.256H727.546C727.61 216.688 727.482 215.248 727.162 213.936C726.842 212.592 726.33 211.52 725.626 210.72C724.954 209.92 724.074 209.52 722.986 209.52C721.514 209.52 720.202 210.256 719.05 211.728C717.93 213.2 717.258 215.536 717.034 218.736L717.178 218.928C717.114 219.408 717.066 219.936 717.034 220.512C717.002 221.088 716.986 221.664 716.986 222.24C716.986 224.416 717.338 226.288 718.042 227.856C718.746 229.424 719.658 230.624 720.778 231.456C721.93 232.256 723.114 232.656 724.33 232.656C725.29 232.656 726.202 232.512 727.066 232.224C727.93 231.904 728.73 231.392 729.466 230.688C730.202 229.984 730.842 229.04 731.386 227.856L732.346 228.24C731.994 229.296 731.418 230.32 730.618 231.312C729.818 232.304 728.81 233.12 727.594 233.76C726.378 234.368 724.97 234.672 723.37 234.672C721.066 234.672 719.082 234.144 717.418 233.088C715.786 232.032 714.522 230.576 713.626 228.72C712.762 226.832 712.33 224.672 712.33 222.24C712.33 219.424 712.778 217.008 713.674 214.992C714.57 212.944 715.834 211.376 717.466 210.288C719.098 209.168 721.002 208.608 723.178 208.608ZM746.787 208.608C748.067 208.608 749.155 208.816 750.051 209.232C750.947 209.648 751.603 210.032 752.019 210.384C753.075 211.248 753.715 210.672 753.939 208.656H755.043C754.979 209.552 754.931 210.624 754.899 211.872C754.867 213.088 754.851 214.736 754.851 216.816H753.747C753.555 215.632 753.219 214.48 752.739 213.36C752.291 212.24 751.619 211.328 750.723 210.624C749.827 209.888 748.659 209.52 747.219 209.52C746.099 209.52 745.155 209.84 744.387 210.48C743.651 211.088 743.283 212 743.283 213.216C743.283 214.176 743.571 215.008 744.147 215.712C744.723 216.384 745.475 217.024 746.403 217.632C747.331 218.208 748.339 218.848 749.427 219.552C750.643 220.32 751.747 221.104 752.739 221.904C753.731 222.704 754.515 223.584 755.091 224.544C755.699 225.504 756.003 226.64 756.003 227.952C756.003 229.424 755.619 230.656 754.851 231.648C754.083 232.64 753.075 233.392 751.827 233.904C750.611 234.416 749.267 234.672 747.795 234.672C747.091 234.672 746.419 234.608 745.779 234.48C745.171 234.384 744.579 234.224 744.003 234C743.683 233.84 743.347 233.648 742.995 233.424C742.675 233.2 742.355 232.96 742.035 232.704C741.715 232.448 741.427 232.464 741.171 232.752C740.915 233.008 740.723 233.536 740.595 234.336H739.491C739.555 233.312 739.603 232.064 739.635 230.592C739.667 229.12 739.683 227.168 739.683 224.736H740.787C741.011 226.528 741.331 228.096 741.747 229.44C742.163 230.784 742.819 231.84 743.715 232.608C744.611 233.344 745.859 233.712 747.459 233.712C748.099 233.712 748.739 233.568 749.379 233.28C750.051 232.992 750.611 232.512 751.059 231.84C751.507 231.168 751.731 230.272 751.731 229.152C751.731 227.744 751.219 226.592 750.195 225.696C749.171 224.8 747.875 223.856 746.307 222.864C745.155 222.128 744.067 221.392 743.043 220.656C742.051 219.92 741.235 219.088 740.595 218.16C739.987 217.232 739.683 216.112 739.683 214.8C739.683 213.36 740.003 212.192 740.643 211.296C741.315 210.368 742.195 209.696 743.283 209.28C744.371 208.832 745.539 208.608 746.787 208.608ZM773.824 208.608C775.872 208.608 777.712 209.056 779.344 209.952C780.976 210.848 782.272 212.256 783.232 214.176C784.224 216.096 784.72 218.592 784.72 221.664C784.72 224.736 784.224 227.232 783.232 229.152C782.272 231.04 780.976 232.432 779.344 233.328C777.712 234.224 775.872 234.672 773.824 234.672C771.808 234.672 769.968 234.224 768.304 233.328C766.672 232.432 765.36 231.04 764.368 229.152C763.408 227.232 762.928 224.736 762.928 221.664C762.928 218.592 763.408 216.096 764.368 214.176C765.36 212.256 766.672 210.848 768.304 209.952C769.968 209.056 771.808 208.608 773.824 208.608ZM773.824 209.568C772 209.568 770.496 210.512 769.312 212.4C768.16 214.288 767.584 217.376 767.584 221.664C767.584 225.952 768.16 229.04 769.312 230.928C770.496 232.784 772 233.712 773.824 233.712C775.648 233.712 777.136 232.784 778.288 230.928C779.472 229.04 780.064 225.952 780.064 221.664C780.064 217.376 779.472 214.288 778.288 212.4C777.136 210.512 775.648 209.568 773.824 209.568ZM812.553 208.752V228.816C812.553 230.256 812.809 231.328 813.321 232.032C813.865 232.704 814.825 233.04 816.201 233.04V234.048C815.209 233.952 814.217 233.904 813.225 233.904C812.297 233.904 811.401 233.952 810.537 234.048C809.705 234.144 808.937 234.32 808.233 234.576V228.912C807.433 230.992 806.297 232.48 804.825 233.376C803.385 234.24 801.897 234.672 800.361 234.672C799.241 234.672 798.265 234.512 797.433 234.192C796.601 233.872 795.913 233.424 795.369 232.848C794.761 232.208 794.345 231.376 794.121 230.352C793.897 229.328 793.785 228.064 793.785 226.56V214.512C793.785 213.072 793.529 212.016 793.017 211.344C792.505 210.64 791.545 210.288 790.137 210.288V209.28C791.161 209.376 792.153 209.424 793.113 209.424C794.041 209.424 794.921 209.376 795.753 209.28C796.617 209.152 797.401 208.976 798.105 208.752V227.616C798.105 228.608 798.169 229.52 798.297 230.352C798.425 231.184 798.745 231.856 799.257 232.368C799.769 232.88 800.601 233.136 801.753 233.136C803.001 233.136 804.105 232.752 805.065 231.984C806.057 231.216 806.825 230.176 807.369 228.864C807.945 227.552 808.233 226.08 808.233 224.448V214.512C808.233 213.072 807.977 212.016 807.465 211.344C806.953 210.64 805.993 210.288 804.585 210.288V209.28C805.609 209.376 806.601 209.424 807.561 209.424C808.489 209.424 809.369 209.376 810.201 209.28C811.065 209.152 811.849 208.976 812.553 208.752ZM835.979 208.608C836.843 208.608 837.595 208.784 838.235 209.136C838.907 209.488 839.419 209.952 839.771 210.528C840.155 211.072 840.347 211.696 840.347 212.4C840.347 213.2 840.091 213.904 839.579 214.512C839.099 215.12 838.443 215.424 837.611 215.424C836.939 215.424 836.347 215.216 835.835 214.8C835.323 214.352 835.067 213.728 835.067 212.928C835.067 212.32 835.227 211.808 835.547 211.392C835.899 210.944 836.283 210.592 836.699 210.336C836.475 210.016 836.139 209.856 835.691 209.856C834.699 209.856 833.787 210.16 832.955 210.768C832.123 211.344 831.419 212.096 830.843 213.024C830.267 213.952 829.819 214.944 829.499 216C829.179 217.024 829.019 217.984 829.019 218.88V229.056C829.019 230.624 829.467 231.68 830.363 232.224C831.291 232.736 832.539 232.992 834.107 232.992V234C833.371 233.968 832.331 233.936 830.987 233.904C829.643 233.84 828.219 233.808 826.715 233.808C825.627 233.808 824.539 233.84 823.451 233.904C822.395 233.936 821.595 233.968 821.051 234V232.992C822.363 232.992 823.291 232.752 823.835 232.272C824.411 231.792 824.699 230.88 824.699 229.536V214.512C824.699 213.072 824.443 212.016 823.931 211.344C823.419 210.64 822.459 210.288 821.051 210.288V209.28C822.075 209.376 823.067 209.424 824.027 209.424C824.955 209.424 825.835 209.376 826.667 209.28C827.531 209.152 828.315 208.976 829.019 208.752V214.752C829.371 213.824 829.867 212.896 830.507 211.968C831.179 211.008 831.979 210.208 832.907 209.568C833.835 208.928 834.859 208.608 835.979 208.608ZM855.889 208.608C856.913 208.608 857.905 208.736 858.865 208.992C859.825 209.248 860.689 209.632 861.457 210.144C862.193 210.624 862.753 211.184 863.137 211.824C863.521 212.432 863.713 213.104 863.713 213.84C863.713 214.704 863.473 215.376 862.993 215.856C862.513 216.304 861.905 216.528 861.169 216.528C860.465 216.528 859.841 216.32 859.297 215.904C858.785 215.488 858.529 214.896 858.529 214.128C858.529 213.392 858.721 212.8 859.105 212.352C859.521 211.904 860.001 211.616 860.545 211.488C860.225 210.912 859.649 210.432 858.817 210.048C858.017 209.664 857.153 209.472 856.225 209.472C855.425 209.472 854.625 209.664 853.825 210.048C853.025 210.432 852.289 211.072 851.617 211.968C850.945 212.832 850.401 214.032 849.985 215.568C849.569 217.072 849.361 218.96 849.361 221.232C849.361 224.048 849.681 226.288 850.321 227.952C850.961 229.616 851.793 230.816 852.817 231.552C853.873 232.256 855.025 232.608 856.273 232.608C857.105 232.608 857.953 232.448 858.817 232.128C859.681 231.808 860.497 231.296 861.265 230.592C862.033 229.856 862.689 228.88 863.233 227.664L864.145 228C863.825 229.024 863.297 230.064 862.561 231.12C861.825 232.144 860.865 232.992 859.681 233.664C858.497 234.336 857.041 234.672 855.313 234.672C853.329 234.672 851.537 234.16 849.937 233.136C848.337 232.112 847.057 230.656 846.097 228.768C845.169 226.848 844.705 224.576 844.705 221.952C844.705 219.328 845.169 217.024 846.097 215.04C847.057 213.024 848.385 211.456 850.081 210.336C851.777 209.184 853.713 208.608 855.889 208.608ZM881.297 208.608C884.113 208.608 886.305 209.472 887.873 211.2C889.473 212.896 890.273 215.552 890.273 219.168H873.329L873.281 218.256H885.665C885.729 216.688 885.601 215.248 885.281 213.936C884.961 212.592 884.449 211.52 883.745 210.72C883.073 209.92 882.193 209.52 881.105 209.52C879.633 209.52 878.321 210.256 877.169 211.728C876.049 213.2 875.377 215.536 875.153 218.736L875.297 218.928C875.233 219.408 875.185 219.936 875.153 220.512C875.121 221.088 875.105 221.664 875.105 222.24C875.105 224.416 875.457 226.288 876.161 227.856C876.865 229.424 877.777 230.624 878.897 231.456C880.049 232.256 881.233 232.656 882.449 232.656C883.409 232.656 884.321 232.512 885.185 232.224C886.049 231.904 886.849 231.392 887.585 230.688C888.321 229.984 888.961 229.04 889.505 227.856L890.465 228.24C890.113 229.296 889.537 230.32 888.737 231.312C887.937 232.304 886.929 233.12 885.713 233.76C884.497 234.368 883.089 234.672 881.489 234.672C879.185 234.672 877.201 234.144 875.537 233.088C873.905 232.032 872.641 230.576 871.745 228.72C870.881 226.832 870.449 224.672 870.449 222.24C870.449 219.424 870.897 217.008 871.793 214.992C872.689 212.944 873.953 211.376 875.585 210.288C877.217 209.168 879.121 208.608 881.297 208.608Z" fill="#232323"/>
<line x1="517" y1="164" x2="777" y2="164" stroke="#38A3A5" stroke-width="4"/>
</svg>
